<mxfile host="app.diagrams.net" agent="Mozilla/5.0 (X11; Linux x86_64) AppleWebKit/537.36 (KHTML, like Gecko) Chrome/128.0.0.0 Safari/537.36" version="24.7.14">
  <diagram name="PÃ¡gina-1" id="G9xeTIO4-0U8LyAHknkH">
    <mxGraphModel dx="1967" dy="1797" grid="1" gridSize="10" guides="1" tooltips="1" connect="1" arrows="1" fold="1" page="1" pageScale="1" pageWidth="827" pageHeight="1169" math="0" shadow="0">
      <root>
        <mxCell id="0" />
        <mxCell id="1" parent="0" />
        <mxCell id="5Ww77VYzwX19S0LwLlC--1" value="&lt;span style=&quot;font-size: 12px;&quot;&gt;E1 Parking&lt;/span&gt;" style="swimlane;childLayout=stackLayout;horizontal=1;startSize=50;horizontalStack=0;rounded=1;fontSize=14;fontStyle=0;strokeWidth=2;resizeParent=0;resizeLast=1;shadow=0;dashed=0;align=center;arcSize=4;whiteSpace=wrap;html=1;" vertex="1" parent="1">
          <mxGeometry x="-310" y="-270" width="120" height="180" as="geometry" />
        </mxCell>
        <mxCell id="5Ww77VYzwX19S0LwLlC--2" value="&lt;span style=&quot;text-wrap: wrap;&quot;&gt;location: string&lt;/span&gt;&lt;div&gt;&lt;span style=&quot;text-wrap: wrap;&quot;&gt;duration:time&lt;/span&gt;&lt;span style=&quot;text-wrap: wrap;&quot;&gt;&lt;br&gt;&lt;/span&gt;&lt;/div&gt;&lt;div&gt;&lt;span style=&quot;text-wrap: wrap;&quot;&gt;price:int&lt;/span&gt;&lt;div style=&quot;text-wrap: wrap;&quot;&gt;vehicle_type:string&lt;/div&gt;&lt;/div&gt;" style="align=left;strokeColor=none;fillColor=none;spacingLeft=4;fontSize=12;verticalAlign=top;resizable=0;rotatable=0;part=1;html=1;" vertex="1" parent="5Ww77VYzwX19S0LwLlC--1">
          <mxGeometry y="50" width="120" height="130" as="geometry" />
        </mxCell>
        <mxCell id="5Ww77VYzwX19S0LwLlC--3" value="&lt;span style=&quot;font-size: 12px;&quot;&gt;E2 GYM&lt;/span&gt;" style="swimlane;childLayout=stackLayout;horizontal=1;startSize=50;horizontalStack=0;rounded=1;fontSize=14;fontStyle=0;strokeWidth=2;resizeParent=0;resizeLast=1;shadow=0;dashed=0;align=center;arcSize=4;whiteSpace=wrap;html=1;" vertex="1" parent="1">
          <mxGeometry x="-170" y="-270" width="130" height="180" as="geometry" />
        </mxCell>
        <mxCell id="5Ww77VYzwX19S0LwLlC--4" value="&lt;div&gt;&lt;span style=&quot;text-wrap: wrap;&quot;&gt;gym_id(pk):int&lt;/span&gt;&lt;/div&gt;&lt;span style=&quot;text-wrap: wrap;&quot;&gt;name:string&lt;/span&gt;&lt;div&gt;&lt;span style=&quot;text-wrap: wrap;&quot;&gt;availability:boolean&lt;/span&gt;&lt;span style=&quot;text-wrap: wrap;&quot;&gt;&lt;br&gt;&lt;/span&gt;&lt;/div&gt;&lt;div&gt;&lt;span style=&quot;text-wrap: wrap;&quot;&gt;duration:time&lt;/span&gt;&lt;div style=&quot;text-wrap: wrap;&quot;&gt;opening_time:time&lt;/div&gt;&lt;div style=&quot;text-wrap: wrap;&quot;&gt;closing_time:time&lt;/div&gt;&lt;div style=&quot;text-wrap: wrap;&quot;&gt;location:string&lt;/div&gt;&lt;/div&gt;" style="align=left;strokeColor=none;fillColor=none;spacingLeft=4;fontSize=12;verticalAlign=top;resizable=0;rotatable=0;part=1;html=1;" vertex="1" parent="5Ww77VYzwX19S0LwLlC--3">
          <mxGeometry y="50" width="130" height="130" as="geometry" />
        </mxCell>
        <mxCell id="5Ww77VYzwX19S0LwLlC--7" value="&lt;span style=&quot;font-size: 12px;&quot;&gt;E5 Event&lt;/span&gt;" style="swimlane;childLayout=stackLayout;horizontal=1;startSize=50;horizontalStack=0;rounded=1;fontSize=14;fontStyle=0;strokeWidth=2;resizeParent=0;resizeLast=1;shadow=0;dashed=0;align=center;arcSize=4;whiteSpace=wrap;html=1;" vertex="1" parent="1">
          <mxGeometry x="320" y="-270" width="160" height="180" as="geometry" />
        </mxCell>
        <mxCell id="5Ww77VYzwX19S0LwLlC--8" value="&lt;div&gt;&lt;span style=&quot;text-wrap: wrap;&quot;&gt;event_id(pk):int&lt;/span&gt;&lt;/div&gt;&lt;span style=&quot;text-wrap: wrap;&quot;&gt;name:string&lt;/span&gt;&lt;div&gt;&lt;span style=&quot;text-wrap: wrap;&quot;&gt;description:string&lt;/span&gt;&lt;span style=&quot;text-wrap: wrap;&quot;&gt;&lt;br&gt;&lt;/span&gt;&lt;/div&gt;&lt;div&gt;&lt;span style=&quot;text-wrap: wrap;&quot;&gt;date:date&lt;/span&gt;&lt;div style=&quot;text-wrap: wrap;&quot;&gt;hour:time&lt;/div&gt;&lt;div style=&quot;text-wrap: wrap;&quot;&gt;location:string&lt;/div&gt;&lt;/div&gt;" style="align=left;strokeColor=none;fillColor=none;spacingLeft=4;fontSize=12;verticalAlign=top;resizable=0;rotatable=0;part=1;html=1;" vertex="1" parent="5Ww77VYzwX19S0LwLlC--7">
          <mxGeometry y="50" width="160" height="130" as="geometry" />
        </mxCell>
        <mxCell id="5Ww77VYzwX19S0LwLlC--9" value="&lt;span style=&quot;font-size: 12px;&quot;&gt;E7&amp;nbsp;HOAFees&lt;/span&gt;" style="swimlane;childLayout=stackLayout;horizontal=1;startSize=50;horizontalStack=0;rounded=1;fontSize=14;fontStyle=0;strokeWidth=2;resizeParent=0;resizeLast=1;shadow=0;dashed=0;align=center;arcSize=4;whiteSpace=wrap;html=1;" vertex="1" parent="1">
          <mxGeometry x="630" y="-270" width="100" height="180" as="geometry" />
        </mxCell>
        <mxCell id="5Ww77VYzwX19S0LwLlC--10" value="&lt;span style=&quot;text-wrap: wrap;&quot;&gt;name:string&lt;/span&gt;&lt;div&gt;&lt;span style=&quot;text-wrap: wrap;&quot;&gt;date:date&lt;/span&gt;&lt;div style=&quot;text-wrap: wrap;&quot;&gt;price:int&lt;/div&gt;&lt;/div&gt;" style="align=left;strokeColor=none;fillColor=none;spacingLeft=4;fontSize=12;verticalAlign=top;resizable=0;rotatable=0;part=1;html=1;" vertex="1" parent="5Ww77VYzwX19S0LwLlC--9">
          <mxGeometry y="50" width="100" height="130" as="geometry" />
        </mxCell>
        <mxCell id="5Ww77VYzwX19S0LwLlC--11" value="&lt;span style=&quot;font-size: 12px;&quot;&gt;E8 Counseling&lt;/span&gt;" style="swimlane;childLayout=stackLayout;horizontal=1;startSize=50;horizontalStack=0;rounded=1;fontSize=14;fontStyle=0;strokeWidth=2;resizeParent=0;resizeLast=1;shadow=0;dashed=0;align=center;arcSize=4;whiteSpace=wrap;html=1;" vertex="1" parent="1">
          <mxGeometry x="750" y="-270" width="120" height="180" as="geometry" />
        </mxCell>
        <mxCell id="5Ww77VYzwX19S0LwLlC--12" value="&lt;div&gt;&lt;span style=&quot;text-wrap: wrap;&quot;&gt;counseling_id(pk):int&lt;/span&gt;&lt;/div&gt;&lt;span style=&quot;text-wrap: wrap;&quot;&gt;advisor_name:string&lt;/span&gt;&lt;br&gt;&lt;div&gt;&lt;span style=&quot;text-wrap: wrap;&quot;&gt;date:date&lt;/span&gt;&lt;div style=&quot;text-wrap: wrap;&quot;&gt;&lt;span style=&quot;background-color: initial;&quot;&gt;hour:time&lt;/span&gt;&lt;/div&gt;&lt;div style=&quot;text-wrap: wrap;&quot;&gt;location:string&lt;/div&gt;&lt;div style=&quot;text-wrap: wrap;&quot;&gt;duration:time&lt;/div&gt;&lt;div style=&quot;text-wrap: wrap;&quot;&gt;speciality:string&lt;/div&gt;&lt;div style=&quot;text-wrap: wrap;&quot;&gt;availability: boolean&lt;/div&gt;&lt;/div&gt;" style="align=left;strokeColor=none;fillColor=none;spacingLeft=4;fontSize=12;verticalAlign=top;resizable=0;rotatable=0;part=1;html=1;" vertex="1" parent="5Ww77VYzwX19S0LwLlC--11">
          <mxGeometry y="50" width="120" height="130" as="geometry" />
        </mxCell>
        <mxCell id="5Ww77VYzwX19S0LwLlC--13" value="&lt;span style=&quot;font-size: 12px;&quot;&gt;E9 Resident&lt;/span&gt;" style="swimlane;childLayout=stackLayout;horizontal=1;startSize=50;horizontalStack=0;rounded=1;fontSize=14;fontStyle=0;strokeWidth=2;resizeParent=0;resizeLast=1;shadow=0;dashed=0;align=center;arcSize=4;whiteSpace=wrap;html=1;" vertex="1" parent="1">
          <mxGeometry x="880" y="-270" width="140" height="180" as="geometry" />
        </mxCell>
        <mxCell id="5Ww77VYzwX19S0LwLlC--14" value="&lt;span style=&quot;text-wrap: wrap;&quot;&gt;resident_id(pk):int&lt;br&gt;name:string&lt;/span&gt;&lt;div&gt;&lt;span style=&quot;text-wrap: wrap;&quot;&gt;email:string&lt;/span&gt;&lt;/div&gt;&lt;div&gt;&lt;span style=&quot;text-wrap: wrap;&quot;&gt;number_phone:int&lt;/span&gt;&lt;/div&gt;&lt;div&gt;&lt;span style=&quot;text-wrap: wrap;&quot;&gt;number_document:int&lt;/span&gt;&lt;/div&gt;" style="align=left;strokeColor=none;fillColor=none;spacingLeft=4;fontSize=12;verticalAlign=top;resizable=0;rotatable=0;part=1;html=1;" vertex="1" parent="5Ww77VYzwX19S0LwLlC--13">
          <mxGeometry y="50" width="140" height="130" as="geometry" />
        </mxCell>
        <mxCell id="5Ww77VYzwX19S0LwLlC--15" value="&lt;span style=&quot;font-size: 12px;&quot;&gt;E10 Visitor&lt;/span&gt;" style="swimlane;childLayout=stackLayout;horizontal=1;startSize=50;horizontalStack=0;rounded=1;fontSize=14;fontStyle=0;strokeWidth=2;resizeParent=0;resizeLast=1;shadow=0;dashed=0;align=center;arcSize=4;whiteSpace=wrap;html=1;" vertex="1" parent="1">
          <mxGeometry x="1030" y="-270" width="130" height="180" as="geometry" />
        </mxCell>
        <mxCell id="5Ww77VYzwX19S0LwLlC--16" value="&lt;div&gt;&lt;span style=&quot;text-wrap: wrap;&quot;&gt;visitor_id(pk):int&lt;/span&gt;&lt;/div&gt;&lt;span style=&quot;text-wrap: wrap;&quot;&gt;name:string&lt;/span&gt;&lt;div&gt;&lt;span style=&quot;text-wrap: wrap;&quot;&gt;email:string&lt;/span&gt;&lt;/div&gt;&lt;div&gt;&lt;span style=&quot;text-wrap: wrap;&quot;&gt;number_phone:int&lt;/span&gt;&lt;/div&gt;&lt;div&gt;&lt;span style=&quot;text-wrap: wrap;&quot;&gt;number_document:int&lt;/span&gt;&lt;/div&gt;&lt;div&gt;status:boolean&lt;/div&gt;" style="align=left;strokeColor=none;fillColor=none;spacingLeft=4;fontSize=12;verticalAlign=top;resizable=0;rotatable=0;part=1;html=1;" vertex="1" parent="5Ww77VYzwX19S0LwLlC--15">
          <mxGeometry y="50" width="130" height="130" as="geometry" />
        </mxCell>
        <mxCell id="5Ww77VYzwX19S0LwLlC--17" value="&lt;span style=&quot;font-size: 12px;&quot;&gt;E11&lt;/span&gt;&lt;div&gt;&lt;span style=&quot;font-size: 12px;&quot;&gt;PropertyManager&lt;/span&gt;&lt;/div&gt;" style="swimlane;childLayout=stackLayout;horizontal=1;startSize=50;horizontalStack=0;rounded=1;fontSize=14;fontStyle=0;strokeWidth=2;resizeParent=0;resizeLast=1;shadow=0;dashed=0;align=center;arcSize=4;whiteSpace=wrap;html=1;" vertex="1" parent="1">
          <mxGeometry x="-370" y="-40" width="180" height="160" as="geometry" />
        </mxCell>
        <mxCell id="5Ww77VYzwX19S0LwLlC--18" value="&lt;div&gt;&lt;span style=&quot;text-wrap: wrap;&quot;&gt;propertyManager_id(pk):int&lt;/span&gt;&lt;/div&gt;&lt;span style=&quot;text-wrap: wrap;&quot;&gt;name:string&lt;/span&gt;&lt;div&gt;&lt;span style=&quot;text-wrap: wrap;&quot;&gt;email:string&lt;/span&gt;&lt;/div&gt;&lt;div&gt;&lt;span style=&quot;text-wrap: wrap;&quot;&gt;number_phone:int&lt;/span&gt;&lt;/div&gt;&lt;div&gt;&lt;span style=&quot;text-wrap: wrap;&quot;&gt;number_document:int&lt;/span&gt;&lt;/div&gt;&lt;div&gt;location:string&lt;/div&gt;" style="align=left;strokeColor=none;fillColor=none;spacingLeft=4;fontSize=12;verticalAlign=top;resizable=0;rotatable=0;part=1;html=1;" vertex="1" parent="5Ww77VYzwX19S0LwLlC--17">
          <mxGeometry y="50" width="180" height="110" as="geometry" />
        </mxCell>
        <mxCell id="5Ww77VYzwX19S0LwLlC--19" value="&lt;span style=&quot;font-size: 12px;&quot;&gt;E12 Rerport&lt;/span&gt;" style="swimlane;childLayout=stackLayout;horizontal=1;startSize=50;horizontalStack=0;rounded=1;fontSize=14;fontStyle=0;strokeWidth=2;resizeParent=0;resizeLast=1;shadow=0;dashed=0;align=center;arcSize=4;whiteSpace=wrap;html=1;" vertex="1" parent="1">
          <mxGeometry x="-170" y="-40" width="120" height="160" as="geometry" />
        </mxCell>
        <mxCell id="5Ww77VYzwX19S0LwLlC--20" value="&lt;span style=&quot;text-wrap: wrap;&quot;&gt;name:string&lt;/span&gt;&lt;div&gt;&lt;span style=&quot;text-wrap: wrap;&quot;&gt;type:string&lt;/span&gt;&lt;/div&gt;&lt;div&gt;&lt;span style=&quot;text-wrap: wrap;&quot;&gt;description:string&lt;/span&gt;&lt;/div&gt;&lt;div&gt;&lt;span style=&quot;text-wrap: wrap;&quot;&gt;date:date&lt;/span&gt;&lt;/div&gt;&lt;div&gt;&lt;span style=&quot;text-wrap: wrap;&quot;&gt;status:boolean&lt;/span&gt;&lt;/div&gt;" style="align=left;strokeColor=none;fillColor=none;spacingLeft=4;fontSize=12;verticalAlign=top;resizable=0;rotatable=0;part=1;html=1;" vertex="1" parent="5Ww77VYzwX19S0LwLlC--19">
          <mxGeometry y="50" width="120" height="110" as="geometry" />
        </mxCell>
        <mxCell id="5Ww77VYzwX19S0LwLlC--21" value="&lt;span style=&quot;font-size: 12px;&quot;&gt;E13 Deliveries&lt;/span&gt;" style="swimlane;childLayout=stackLayout;horizontal=1;startSize=50;horizontalStack=0;rounded=1;fontSize=14;fontStyle=0;strokeWidth=2;resizeParent=0;resizeLast=1;shadow=0;dashed=0;align=center;arcSize=4;whiteSpace=wrap;html=1;" vertex="1" parent="1">
          <mxGeometry x="-30" y="-40" width="120" height="160" as="geometry" />
        </mxCell>
        <mxCell id="5Ww77VYzwX19S0LwLlC--22" value="&lt;span style=&quot;text-wrap: wrap;&quot;&gt;name:string&lt;/span&gt;&lt;div&gt;&lt;span style=&quot;text-wrap: wrap;&quot;&gt;type:strign&lt;/span&gt;&lt;/div&gt;&lt;div&gt;&lt;span style=&quot;text-wrap: wrap;&quot;&gt;description:string&lt;/span&gt;&lt;/div&gt;&lt;div&gt;&lt;span style=&quot;text-wrap: wrap;&quot;&gt;date:date&lt;/span&gt;&lt;/div&gt;&lt;div&gt;&lt;span style=&quot;text-wrap: wrap;&quot;&gt;status:boolean&lt;/span&gt;&lt;/div&gt;" style="align=left;strokeColor=none;fillColor=none;spacingLeft=4;fontSize=12;verticalAlign=top;resizable=0;rotatable=0;part=1;html=1;" vertex="1" parent="5Ww77VYzwX19S0LwLlC--21">
          <mxGeometry y="50" width="120" height="110" as="geometry" />
        </mxCell>
        <mxCell id="5Ww77VYzwX19S0LwLlC--23" value="&lt;span style=&quot;font-size: 12px;&quot;&gt;E14 Reminders&lt;/span&gt;" style="swimlane;childLayout=stackLayout;horizontal=1;startSize=50;horizontalStack=0;rounded=1;fontSize=14;fontStyle=0;strokeWidth=2;resizeParent=0;resizeLast=1;shadow=0;dashed=0;align=center;arcSize=4;whiteSpace=wrap;html=1;" vertex="1" parent="1">
          <mxGeometry x="120" y="-40" width="150" height="160" as="geometry" />
        </mxCell>
        <mxCell id="5Ww77VYzwX19S0LwLlC--24" value="&lt;span style=&quot;text-wrap: wrap;&quot;&gt;name:string&lt;/span&gt;&lt;div&gt;&lt;span style=&quot;text-wrap: wrap;&quot;&gt;type:string&lt;/span&gt;&lt;/div&gt;&lt;div&gt;&lt;span style=&quot;text-wrap: wrap;&quot;&gt;description:string&lt;/span&gt;&lt;/div&gt;&lt;div&gt;&lt;span style=&quot;text-wrap: wrap;&quot;&gt;date:date&lt;/span&gt;&lt;/div&gt;&lt;div&gt;&lt;span style=&quot;text-wrap: wrap;&quot;&gt;hour:time&lt;/span&gt;&lt;/div&gt;&lt;div&gt;&lt;span style=&quot;text-wrap: wrap;&quot;&gt;location:string&lt;/span&gt;&lt;/div&gt;&lt;div&gt;&lt;span style=&quot;text-wrap: wrap;&quot;&gt;status:boolean&lt;/span&gt;&lt;/div&gt;" style="align=left;strokeColor=none;fillColor=none;spacingLeft=4;fontSize=12;verticalAlign=top;resizable=0;rotatable=0;part=1;html=1;" vertex="1" parent="5Ww77VYzwX19S0LwLlC--23">
          <mxGeometry y="50" width="150" height="110" as="geometry" />
        </mxCell>
        <mxCell id="5Ww77VYzwX19S0LwLlC--25" value="&lt;span style=&quot;font-size: 12px;&quot;&gt;E15 Apartment&lt;/span&gt;" style="swimlane;childLayout=stackLayout;horizontal=1;startSize=50;horizontalStack=0;rounded=1;fontSize=14;fontStyle=0;strokeWidth=2;resizeParent=0;resizeLast=1;shadow=0;dashed=0;align=center;arcSize=4;whiteSpace=wrap;html=1;" vertex="1" parent="1">
          <mxGeometry x="320" y="-40" width="130" height="200" as="geometry" />
        </mxCell>
        <mxCell id="5Ww77VYzwX19S0LwLlC--26" value="&lt;span style=&quot;text-wrap: wrap;&quot;&gt;number: int&lt;/span&gt;&lt;div&gt;&lt;span style=&quot;text-wrap: wrap;&quot;&gt;size: float&lt;/span&gt;&lt;div style=&quot;text-wrap: wrap;&quot;&gt;price: int&lt;/div&gt;&lt;div style=&quot;text-wrap: wrap;&quot;&gt;location:string&lt;/div&gt;&lt;div style=&quot;text-wrap: wrap;&quot;&gt;status: boolean&lt;/div&gt;&lt;div style=&quot;text-wrap: wrap;&quot;&gt;number_room: int&lt;/div&gt;&lt;div style=&quot;text-wrap: wrap;&quot;&gt;number_bathroom:int&lt;/div&gt;&lt;div style=&quot;text-wrap: wrap;&quot;&gt;hall: string&lt;/div&gt;&lt;div style=&quot;text-wrap: wrap;&quot;&gt;kitchen: string&lt;/div&gt;&lt;/div&gt;" style="align=left;strokeColor=none;fillColor=none;spacingLeft=4;fontSize=12;verticalAlign=top;resizable=0;rotatable=0;part=1;html=1;" vertex="1" parent="5Ww77VYzwX19S0LwLlC--25">
          <mxGeometry y="50" width="130" height="150" as="geometry" />
        </mxCell>
        <mxCell id="5Ww77VYzwX19S0LwLlC--27" value="&lt;span style=&quot;font-size: 12px;&quot;&gt;E16 BLock&lt;/span&gt;" style="swimlane;childLayout=stackLayout;horizontal=1;startSize=50;horizontalStack=0;rounded=1;fontSize=14;fontStyle=0;strokeWidth=2;resizeParent=0;resizeLast=1;shadow=0;dashed=0;align=center;arcSize=4;whiteSpace=wrap;html=1;" vertex="1" parent="1">
          <mxGeometry x="470" y="-40" width="140" height="200" as="geometry" />
        </mxCell>
        <mxCell id="5Ww77VYzwX19S0LwLlC--28" value="&lt;span style=&quot;text-wrap: wrap;&quot;&gt;name: string&lt;/span&gt;&lt;div&gt;&lt;span style=&quot;text-wrap: wrap;&quot;&gt;number_apartments:int&lt;/span&gt;&lt;div style=&quot;text-wrap: wrap;&quot;&gt;floores_number: int&lt;/div&gt;&lt;/div&gt;" style="align=left;strokeColor=none;fillColor=none;spacingLeft=4;fontSize=12;verticalAlign=top;resizable=0;rotatable=0;part=1;html=1;" vertex="1" parent="5Ww77VYzwX19S0LwLlC--27">
          <mxGeometry y="50" width="140" height="150" as="geometry" />
        </mxCell>
        <mxCell id="5Ww77VYzwX19S0LwLlC--29" value="&lt;span style=&quot;font-size: 12px;&quot;&gt;E17 Payment&lt;/span&gt;" style="swimlane;childLayout=stackLayout;horizontal=1;startSize=50;horizontalStack=0;rounded=1;fontSize=14;fontStyle=0;strokeWidth=2;resizeParent=0;resizeLast=1;shadow=0;dashed=0;align=center;arcSize=4;whiteSpace=wrap;html=1;" vertex="1" parent="1">
          <mxGeometry x="630" y="-40" width="120" height="200" as="geometry" />
        </mxCell>
        <mxCell id="5Ww77VYzwX19S0LwLlC--30" value="&lt;div&gt;&lt;span style=&quot;text-wrap: wrap;&quot;&gt;name: string&lt;/span&gt;&lt;/div&gt;&lt;span style=&quot;text-wrap: wrap;&quot;&gt;status: boolean&lt;br&gt;&lt;/span&gt;&lt;span style=&quot;text-wrap: wrap;&quot;&gt;type: string&lt;/span&gt;&lt;div style=&quot;text-wrap: wrap;&quot;&gt;&lt;span style=&quot;background-color: initial;&quot;&gt;price: int&lt;/span&gt;&lt;/div&gt;&lt;div style=&quot;text-wrap: wrap;&quot;&gt;date: date&lt;/div&gt;&lt;div style=&quot;text-wrap: wrap;&quot;&gt;payment_method&lt;/div&gt;" style="align=left;strokeColor=none;fillColor=none;spacingLeft=4;fontSize=12;verticalAlign=top;resizable=0;rotatable=0;part=1;html=1;" vertex="1" parent="5Ww77VYzwX19S0LwLlC--29">
          <mxGeometry y="50" width="120" height="150" as="geometry" />
        </mxCell>
        <mxCell id="5Ww77VYzwX19S0LwLlC--68" value="&lt;span style=&quot;font-size: 12px;&quot;&gt;E18&lt;/span&gt;&lt;div&gt;&lt;span style=&quot;font-size: 12px;&quot;&gt;Resident_Counseling&lt;/span&gt;&lt;div&gt;&lt;/div&gt;&lt;/div&gt;" style="swimlane;childLayout=stackLayout;horizontal=1;startSize=50;horizontalStack=0;rounded=1;fontSize=14;fontStyle=0;strokeWidth=2;resizeParent=0;resizeLast=1;shadow=0;dashed=0;align=center;arcSize=4;whiteSpace=wrap;html=1;" vertex="1" parent="1">
          <mxGeometry x="770" y="-40" width="120" height="200" as="geometry" />
        </mxCell>
        <mxCell id="5Ww77VYzwX19S0LwLlC--69" value="&lt;span style=&quot;text-wrap: wrap;&quot;&gt;resident(fk):int&lt;/span&gt;&lt;div&gt;&lt;span style=&quot;text-wrap: wrap;&quot;&gt;counseling(fk):int&lt;/span&gt;&lt;/div&gt;&lt;div&gt;&lt;span style=&quot;text-wrap: wrap;&quot;&gt;id(pk):int&lt;/span&gt;&lt;/div&gt;&lt;div&gt;&lt;span style=&quot;text-wrap: wrap;&quot;&gt;salary:int&lt;/span&gt;&lt;/div&gt;" style="align=left;strokeColor=none;fillColor=none;spacingLeft=4;fontSize=12;verticalAlign=top;resizable=0;rotatable=0;part=1;html=1;" vertex="1" parent="5Ww77VYzwX19S0LwLlC--68">
          <mxGeometry y="50" width="120" height="150" as="geometry" />
        </mxCell>
        <mxCell id="5Ww77VYzwX19S0LwLlC--72" value="&lt;span style=&quot;font-size: 12px;&quot;&gt;E19&lt;/span&gt;&lt;div&gt;&lt;span style=&quot;font-size: 12px;&quot;&gt;Resident_Event&lt;/span&gt;&lt;div&gt;&lt;/div&gt;&lt;/div&gt;" style="swimlane;childLayout=stackLayout;horizontal=1;startSize=50;horizontalStack=0;rounded=1;fontSize=14;fontStyle=0;strokeWidth=2;resizeParent=0;resizeLast=1;shadow=0;dashed=0;align=center;arcSize=4;whiteSpace=wrap;html=1;" vertex="1" parent="1">
          <mxGeometry x="910" y="-40" width="110" height="200" as="geometry" />
        </mxCell>
        <mxCell id="5Ww77VYzwX19S0LwLlC--73" value="&lt;span style=&quot;text-wrap: wrap;&quot;&gt;resident(fk):int&lt;/span&gt;&lt;div&gt;&lt;span style=&quot;text-wrap: wrap;&quot;&gt;event(fk):int&lt;/span&gt;&lt;/div&gt;&lt;div&gt;&lt;span style=&quot;text-wrap: wrap;&quot;&gt;id(pk):int&lt;/span&gt;&lt;/div&gt;&lt;div&gt;&lt;br&gt;&lt;/div&gt;" style="align=left;strokeColor=none;fillColor=none;spacingLeft=4;fontSize=12;verticalAlign=top;resizable=0;rotatable=0;part=1;html=1;" vertex="1" parent="5Ww77VYzwX19S0LwLlC--72">
          <mxGeometry y="50" width="110" height="150" as="geometry" />
        </mxCell>
        <mxCell id="5Ww77VYzwX19S0LwLlC--74" value="&lt;span style=&quot;font-size: 12px;&quot;&gt;E20&lt;/span&gt;&lt;div&gt;&lt;span style=&quot;font-size: 12px;&quot;&gt;Resident_GYM&lt;/span&gt;&lt;div&gt;&lt;/div&gt;&lt;/div&gt;" style="swimlane;childLayout=stackLayout;horizontal=1;startSize=50;horizontalStack=0;rounded=1;fontSize=14;fontStyle=0;strokeWidth=2;resizeParent=0;resizeLast=1;shadow=0;dashed=0;align=center;arcSize=4;whiteSpace=wrap;html=1;" vertex="1" parent="1">
          <mxGeometry x="1040" y="-40" width="115" height="200" as="geometry" />
        </mxCell>
        <mxCell id="5Ww77VYzwX19S0LwLlC--75" value="&lt;span style=&quot;text-wrap: wrap;&quot;&gt;resident(fk)&lt;/span&gt;&lt;span style=&quot;text-wrap: wrap;&quot;&gt;:int&lt;/span&gt;&lt;div&gt;&lt;span style=&quot;text-wrap: wrap;&quot;&gt;Gym(fk)&lt;/span&gt;&lt;span style=&quot;text-wrap: wrap; background-color: initial;&quot;&gt;:int&lt;/span&gt;&lt;/div&gt;&lt;div&gt;&lt;span style=&quot;text-wrap: wrap;&quot;&gt;id(pk):int&lt;/span&gt;&lt;/div&gt;&lt;div&gt;&lt;br&gt;&lt;/div&gt;" style="align=left;strokeColor=none;fillColor=none;spacingLeft=4;fontSize=12;verticalAlign=top;resizable=0;rotatable=0;part=1;html=1;" vertex="1" parent="5Ww77VYzwX19S0LwLlC--74">
          <mxGeometry y="50" width="115" height="150" as="geometry" />
        </mxCell>
        <mxCell id="5Ww77VYzwX19S0LwLlC--76" value="&lt;span style=&quot;font-size: 12px;&quot;&gt;E21&lt;/span&gt;&lt;div&gt;&lt;span style=&quot;font-size: 12px;&quot;&gt;Resident_sportField&lt;/span&gt;&lt;div&gt;&lt;/div&gt;&lt;/div&gt;" style="swimlane;childLayout=stackLayout;horizontal=1;startSize=50;horizontalStack=0;rounded=1;fontSize=14;fontStyle=0;strokeWidth=2;resizeParent=0;resizeLast=1;shadow=0;dashed=0;align=center;arcSize=4;whiteSpace=wrap;html=1;" vertex="1" parent="1">
          <mxGeometry x="-370" y="190" width="120" height="160" as="geometry" />
        </mxCell>
        <mxCell id="5Ww77VYzwX19S0LwLlC--77" value="&lt;span style=&quot;text-wrap: wrap;&quot;&gt;resident(fk)&lt;/span&gt;&lt;span style=&quot;text-wrap: wrap;&quot;&gt;:int&lt;/span&gt;&lt;div&gt;&lt;span style=&quot;text-wrap: wrap;&quot;&gt;sportField(fk)&lt;/span&gt;&lt;span style=&quot;text-wrap: wrap; background-color: initial;&quot;&gt;:int&lt;/span&gt;&lt;/div&gt;&lt;div&gt;&lt;span style=&quot;text-wrap: wrap;&quot;&gt;id(pk)&lt;/span&gt;&lt;span style=&quot;text-wrap: wrap; background-color: initial;&quot;&gt;:int&lt;/span&gt;&lt;/div&gt;&lt;div&gt;&lt;br&gt;&lt;/div&gt;" style="align=left;strokeColor=none;fillColor=none;spacingLeft=4;fontSize=12;verticalAlign=top;resizable=0;rotatable=0;part=1;html=1;" vertex="1" parent="5Ww77VYzwX19S0LwLlC--76">
          <mxGeometry y="50" width="120" height="110" as="geometry" />
        </mxCell>
        <mxCell id="5Ww77VYzwX19S0LwLlC--78" value="&lt;span style=&quot;font-size: 12px;&quot;&gt;E22&lt;/span&gt;&lt;div&gt;&lt;span style=&quot;font-size: 12px; background-color: initial;&quot;&gt;Resident_communityRoom&lt;/span&gt;&lt;div&gt;&lt;div&gt;&lt;/div&gt;&lt;/div&gt;&lt;/div&gt;" style="swimlane;childLayout=stackLayout;horizontal=1;startSize=50;horizontalStack=0;rounded=1;fontSize=14;fontStyle=0;strokeWidth=2;resizeParent=0;resizeLast=1;shadow=0;dashed=0;align=center;arcSize=4;whiteSpace=wrap;html=1;" vertex="1" parent="1">
          <mxGeometry x="-220" y="190" width="160" height="160" as="geometry" />
        </mxCell>
        <mxCell id="5Ww77VYzwX19S0LwLlC--79" value="&lt;span style=&quot;text-wrap: wrap;&quot;&gt;resident(fk)&lt;/span&gt;&lt;span style=&quot;text-wrap: wrap;&quot;&gt;:int&lt;/span&gt;&lt;div&gt;&lt;span style=&quot;text-wrap: wrap;&quot;&gt;communityRoom(fk)&lt;/span&gt;&lt;span style=&quot;text-wrap: wrap; background-color: initial;&quot;&gt;:int&lt;/span&gt;&lt;/div&gt;&lt;div&gt;&lt;span style=&quot;text-wrap: wrap;&quot;&gt;id(pk)&lt;/span&gt;&lt;span style=&quot;text-wrap: wrap; background-color: initial;&quot;&gt;:int&lt;/span&gt;&lt;/div&gt;&lt;div&gt;&lt;br&gt;&lt;/div&gt;" style="align=left;strokeColor=none;fillColor=none;spacingLeft=4;fontSize=12;verticalAlign=top;resizable=0;rotatable=0;part=1;html=1;" vertex="1" parent="5Ww77VYzwX19S0LwLlC--78">
          <mxGeometry y="50" width="160" height="110" as="geometry" />
        </mxCell>
        <mxCell id="5Ww77VYzwX19S0LwLlC--80" value="&lt;span style=&quot;font-size: 12px;&quot;&gt;E23&lt;/span&gt;&lt;div&gt;&lt;span style=&quot;font-size: 12px; background-color: initial;&quot;&gt;Visitor_Event&lt;/span&gt;&lt;div&gt;&lt;div&gt;&lt;/div&gt;&lt;/div&gt;&lt;/div&gt;" style="swimlane;childLayout=stackLayout;horizontal=1;startSize=50;horizontalStack=0;rounded=1;fontSize=14;fontStyle=0;strokeWidth=2;resizeParent=0;resizeLast=1;shadow=0;dashed=0;align=center;arcSize=4;whiteSpace=wrap;html=1;" vertex="1" parent="1">
          <mxGeometry x="-40" y="190" width="140" height="160" as="geometry" />
        </mxCell>
        <mxCell id="5Ww77VYzwX19S0LwLlC--81" value="&lt;span style=&quot;text-wrap: wrap;&quot;&gt;visitor(fk)&lt;/span&gt;&lt;span style=&quot;text-wrap: wrap;&quot;&gt;:int&lt;/span&gt;&lt;div&gt;&lt;span style=&quot;text-wrap: wrap;&quot;&gt;sportField(fk)&lt;/span&gt;&lt;span style=&quot;text-wrap: wrap; background-color: initial;&quot;&gt;:int&lt;/span&gt;&lt;/div&gt;&lt;div&gt;&lt;span style=&quot;text-wrap: wrap;&quot;&gt;id(pk)&lt;/span&gt;&lt;span style=&quot;text-wrap: wrap; background-color: initial;&quot;&gt;:int&lt;/span&gt;&lt;/div&gt;&lt;div&gt;&lt;br&gt;&lt;/div&gt;" style="align=left;strokeColor=none;fillColor=none;spacingLeft=4;fontSize=12;verticalAlign=top;resizable=0;rotatable=0;part=1;html=1;" vertex="1" parent="5Ww77VYzwX19S0LwLlC--80">
          <mxGeometry y="50" width="140" height="110" as="geometry" />
        </mxCell>
        <mxCell id="5Ww77VYzwX19S0LwLlC--82" value="&lt;span style=&quot;font-size: 12px;&quot;&gt;E24&lt;/span&gt;&lt;div&gt;&lt;span style=&quot;font-size: 12px; background-color: initial;&quot;&gt;Visitor_GYM&lt;/span&gt;&lt;div&gt;&lt;div&gt;&lt;/div&gt;&lt;/div&gt;&lt;/div&gt;" style="swimlane;childLayout=stackLayout;horizontal=1;startSize=50;horizontalStack=0;rounded=1;fontSize=14;fontStyle=0;strokeWidth=2;resizeParent=0;resizeLast=1;shadow=0;dashed=0;align=center;arcSize=4;whiteSpace=wrap;html=1;" vertex="1" parent="1">
          <mxGeometry x="120" y="190" width="140" height="160" as="geometry" />
        </mxCell>
        <mxCell id="5Ww77VYzwX19S0LwLlC--116" value="&lt;span style=&quot;text-wrap: wrap;&quot;&gt;visitor(fk):int&lt;/span&gt;&lt;div&gt;&lt;span style=&quot;text-wrap: wrap;&quot;&gt;gym(fk):int&lt;/span&gt;&lt;/div&gt;&lt;div&gt;&lt;span style=&quot;text-wrap: wrap;&quot;&gt;id(pk):int&lt;/span&gt;&lt;/div&gt;" style="text;html=1;align=center;verticalAlign=middle;resizable=0;points=[];autosize=1;strokeColor=none;fillColor=none;" vertex="1" parent="5Ww77VYzwX19S0LwLlC--82">
          <mxGeometry y="50" width="140" height="110" as="geometry" />
        </mxCell>
        <mxCell id="5Ww77VYzwX19S0LwLlC--84" value="&lt;span style=&quot;font-size: 12px;&quot;&gt;E3 SportField&lt;/span&gt;" style="swimlane;childLayout=stackLayout;horizontal=1;startSize=50;horizontalStack=0;rounded=1;fontSize=14;fontStyle=0;strokeWidth=2;resizeParent=0;resizeLast=1;shadow=0;dashed=0;align=center;arcSize=4;whiteSpace=wrap;html=1;" vertex="1" parent="1">
          <mxGeometry x="-20" y="-270" width="130" height="180" as="geometry" />
        </mxCell>
        <mxCell id="5Ww77VYzwX19S0LwLlC--85" value="&lt;div&gt;&lt;span style=&quot;text-wrap: wrap;&quot;&gt;sportField_id(pk):int&lt;/span&gt;&lt;/div&gt;&lt;span style=&quot;text-wrap: wrap;&quot;&gt;name: string&lt;/span&gt;&lt;div&gt;&lt;span style=&quot;text-wrap: wrap;&quot;&gt;availability:boolean&lt;/span&gt;&lt;span style=&quot;text-wrap: wrap;&quot;&gt;&lt;br&gt;&lt;/span&gt;&lt;/div&gt;&lt;div&gt;&lt;span style=&quot;text-wrap: wrap;&quot;&gt;duration:time&lt;/span&gt;&lt;div style=&quot;text-wrap: wrap;&quot;&gt;typeField:string&lt;br&gt;&lt;/div&gt;&lt;div style=&quot;text-wrap: wrap;&quot;&gt;reservation: string&lt;br&gt;&lt;/div&gt;&lt;div style=&quot;text-wrap: wrap;&quot;&gt;maximum_capacity:int&lt;br&gt;&lt;/div&gt;&lt;div style=&quot;text-wrap: wrap;&quot;&gt;location:string&lt;/div&gt;&lt;/div&gt;" style="align=left;strokeColor=none;fillColor=none;spacingLeft=4;fontSize=12;verticalAlign=top;resizable=0;rotatable=0;part=1;html=1;" vertex="1" parent="5Ww77VYzwX19S0LwLlC--84">
          <mxGeometry y="50" width="130" height="130" as="geometry" />
        </mxCell>
        <mxCell id="5Ww77VYzwX19S0LwLlC--86" value="&lt;span style=&quot;font-size: 12px;&quot;&gt;E25&lt;/span&gt;&lt;div&gt;&lt;span style=&quot;font-size: 12px; background-color: initial;&quot;&gt;Visitor_sportField&lt;/span&gt;&lt;div&gt;&lt;div&gt;&lt;/div&gt;&lt;/div&gt;&lt;/div&gt;" style="swimlane;childLayout=stackLayout;horizontal=1;startSize=50;horizontalStack=0;rounded=1;fontSize=14;fontStyle=0;strokeWidth=2;resizeParent=0;resizeLast=1;shadow=0;dashed=0;align=center;arcSize=4;whiteSpace=wrap;html=1;" vertex="1" parent="1">
          <mxGeometry x="290" y="190" width="130" height="160" as="geometry" />
        </mxCell>
        <mxCell id="5Ww77VYzwX19S0LwLlC--117" value="&lt;span style=&quot;text-wrap: wrap;&quot;&gt;visitor(fk):int&lt;/span&gt;&lt;div&gt;&lt;span style=&quot;text-wrap: wrap;&quot;&gt;sportField(fk):int&lt;/span&gt;&lt;/div&gt;&lt;div&gt;&lt;span style=&quot;text-wrap: wrap;&quot;&gt;id(pk):int&lt;/span&gt;&lt;/div&gt;&lt;div&gt;&lt;br style=&quot;text-align: left;&quot;&gt;&lt;/div&gt;" style="text;html=1;align=center;verticalAlign=middle;resizable=0;points=[];autosize=1;strokeColor=none;fillColor=none;" vertex="1" parent="5Ww77VYzwX19S0LwLlC--86">
          <mxGeometry y="50" width="130" height="110" as="geometry" />
        </mxCell>
        <mxCell id="5Ww77VYzwX19S0LwLlC--88" value="&lt;span style=&quot;font-size: 12px;&quot;&gt;E26&lt;/span&gt;&lt;div&gt;&lt;span style=&quot;font-size: 12px; background-color: initial;&quot;&gt;Visitor_CommunityRoom&lt;/span&gt;&lt;div&gt;&lt;div&gt;&lt;/div&gt;&lt;/div&gt;&lt;/div&gt;" style="swimlane;childLayout=stackLayout;horizontal=1;startSize=50;horizontalStack=0;rounded=1;fontSize=14;fontStyle=0;strokeWidth=2;resizeParent=0;resizeLast=1;shadow=0;dashed=0;align=center;arcSize=4;whiteSpace=wrap;html=1;" vertex="1" parent="1">
          <mxGeometry x="460" y="190" width="160" height="160" as="geometry" />
        </mxCell>
        <mxCell id="5Ww77VYzwX19S0LwLlC--90" value="&lt;span style=&quot;font-size: 12px;&quot;&gt;E27&lt;/span&gt;&lt;div&gt;&lt;span style=&quot;font-size: 12px; background-color: initial;&quot;&gt;propertyManager_event&lt;/span&gt;&lt;div&gt;&lt;div&gt;&lt;/div&gt;&lt;/div&gt;&lt;/div&gt;" style="swimlane;childLayout=stackLayout;horizontal=1;startSize=50;horizontalStack=0;rounded=1;fontSize=14;fontStyle=0;strokeWidth=2;resizeParent=0;resizeLast=1;shadow=0;dashed=0;align=center;arcSize=4;whiteSpace=wrap;html=1;" vertex="1" parent="1">
          <mxGeometry x="640" y="190" width="180" height="160" as="geometry" />
        </mxCell>
        <mxCell id="5Ww77VYzwX19S0LwLlC--91" value="&lt;span style=&quot;text-wrap: wrap;&quot;&gt;propertyManager(fk):int&lt;/span&gt;&lt;div&gt;&lt;span style=&quot;text-wrap: wrap;&quot;&gt;evento(fk):int&lt;/span&gt;&lt;/div&gt;&lt;div&gt;&lt;span style=&quot;text-wrap: wrap;&quot;&gt;id(pk):int&lt;/span&gt;&lt;/div&gt;" style="align=left;strokeColor=none;fillColor=none;spacingLeft=4;fontSize=12;verticalAlign=top;resizable=0;rotatable=0;part=1;html=1;" vertex="1" parent="5Ww77VYzwX19S0LwLlC--90">
          <mxGeometry y="50" width="180" height="110" as="geometry" />
        </mxCell>
        <mxCell id="5Ww77VYzwX19S0LwLlC--93" value="&lt;span style=&quot;font-size: 12px;&quot;&gt;E6&lt;/span&gt;&lt;div&gt;&lt;span style=&quot;font-size: 12px;&quot;&gt;UtilityBills&lt;/span&gt;&lt;/div&gt;" style="swimlane;childLayout=stackLayout;horizontal=1;startSize=50;horizontalStack=0;rounded=1;fontSize=14;fontStyle=0;strokeWidth=2;resizeParent=0;resizeLast=1;shadow=0;dashed=0;align=center;arcSize=4;whiteSpace=wrap;html=1;" vertex="1" parent="1">
          <mxGeometry x="500" y="-270" width="120" height="180" as="geometry" />
        </mxCell>
        <mxCell id="5Ww77VYzwX19S0LwLlC--94" value="&lt;span style=&quot;text-wrap: wrap;&quot;&gt;name:string&lt;/span&gt;&lt;div&gt;&lt;span style=&quot;text-wrap: wrap;&quot;&gt;type:string&lt;/span&gt;&lt;span style=&quot;text-wrap: wrap;&quot;&gt;&lt;br&gt;&lt;/span&gt;&lt;/div&gt;&lt;div&gt;&lt;span style=&quot;text-wrap: wrap;&quot;&gt;date:date&lt;/span&gt;&lt;div style=&quot;text-wrap: wrap;&quot;&gt;price:int&lt;/div&gt;&lt;/div&gt;" style="align=left;strokeColor=none;fillColor=none;spacingLeft=4;fontSize=12;verticalAlign=top;resizable=0;rotatable=0;part=1;html=1;" vertex="1" parent="5Ww77VYzwX19S0LwLlC--93">
          <mxGeometry y="50" width="120" height="130" as="geometry" />
        </mxCell>
        <mxCell id="5Ww77VYzwX19S0LwLlC--114" value="&lt;span style=&quot;font-size: 12px;&quot;&gt;E4&lt;/span&gt;&lt;div&gt;&lt;span style=&quot;font-size: 12px;&quot;&gt;CommuntyRoom&lt;/span&gt;&lt;/div&gt;" style="swimlane;childLayout=stackLayout;horizontal=1;startSize=50;horizontalStack=0;rounded=1;fontSize=14;fontStyle=0;strokeWidth=2;resizeParent=0;resizeLast=1;shadow=0;dashed=0;align=center;arcSize=4;whiteSpace=wrap;html=1;" vertex="1" parent="1">
          <mxGeometry x="130" y="-270" width="170" height="180" as="geometry" />
        </mxCell>
        <mxCell id="5Ww77VYzwX19S0LwLlC--115" value="&lt;div&gt;&lt;span style=&quot;text-wrap: wrap;&quot;&gt;communityRoom_id(pk): int&lt;/span&gt;&lt;/div&gt;&lt;span style=&quot;text-wrap: wrap;&quot;&gt;name:string&lt;/span&gt;&lt;div&gt;&lt;span style=&quot;text-wrap: wrap;&quot;&gt;availability:boolean&lt;/span&gt;&lt;span style=&quot;text-wrap: wrap;&quot;&gt;&lt;br&gt;&lt;/span&gt;&lt;/div&gt;&lt;div&gt;&lt;span style=&quot;text-wrap: wrap;&quot;&gt;duration:time&lt;/span&gt;&lt;div style=&quot;text-wrap: wrap;&quot;&gt;typeField:string&lt;br&gt;&lt;/div&gt;&lt;div style=&quot;text-wrap: wrap;&quot;&gt;reservation:string&lt;br&gt;&lt;/div&gt;&lt;div style=&quot;text-wrap: wrap;&quot;&gt;maximum_capacity:int&lt;br&gt;&lt;/div&gt;&lt;div style=&quot;text-wrap: wrap;&quot;&gt;location:string&lt;/div&gt;&lt;/div&gt;" style="align=left;strokeColor=none;fillColor=none;spacingLeft=4;fontSize=12;verticalAlign=top;resizable=0;rotatable=0;part=1;html=1;" vertex="1" parent="5Ww77VYzwX19S0LwLlC--114">
          <mxGeometry y="50" width="170" height="130" as="geometry" />
        </mxCell>
        <mxCell id="5Ww77VYzwX19S0LwLlC--118" value="&lt;span style=&quot;text-wrap: wrap;&quot;&gt;visitor(fk):int&lt;/span&gt;&lt;div&gt;&lt;span style=&quot;text-wrap: wrap;&quot;&gt;communityRoom(fk):int&lt;/span&gt;&lt;/div&gt;&lt;div&gt;&lt;span style=&quot;text-wrap: wrap;&quot;&gt;id(pk):int&lt;/span&gt;&lt;/div&gt;&lt;div&gt;&lt;br style=&quot;text-align: left;&quot;&gt;&lt;/div&gt;" style="text;html=1;align=center;verticalAlign=middle;resizable=0;points=[];autosize=1;strokeColor=none;fillColor=none;" vertex="1" parent="1">
          <mxGeometry x="465" y="258" width="150" height="70" as="geometry" />
        </mxCell>
      </root>
    </mxGraphModel>
  </diagram>
</mxfile>
